<svg width="190" height="60" viewBox="0 0 190 60" fill="none" xmlns="http://www.w3.org/2000/svg">
<path d="M91.9196 40.4998H88.2296C87.8696 40.4998 87.6896 40.3198 87.6896 39.9598V19.5898C87.6896 19.2298 87.8696 19.0498 88.2296 19.0498H92.4896C92.7696 19.0498 92.9696 19.1798 93.0896 19.4398L95.7896 24.6598C96.4896 26.0198 97.3896 27.9898 98.4896 30.5698H98.6096C99.3696 28.6698 100.26 26.6998 101.28 24.6598L104.01 19.4398C104.13 19.1798 104.33 19.0498 104.61 19.0498H108.87C109.21 19.0498 109.38 19.2298 109.38 19.5898V53.5C109.38 53.86 109.21 54.04 108.87 54.04H105.15C104.79 54.04 104.61 53.86 104.61 53.5V35.9998C104.61 33.0998 104.71 29.8998 104.91 26.3998L104.79 26.3698C104.05 28.1698 103.14 30.1798 102.06 32.3998L100.59 35.3698C100.47 35.6298 100.27 35.7598 99.9896 35.7598H97.1096C96.8096 35.7598 96.6096 35.6298 96.5096 35.3698L95.0096 32.3998C93.9296 30.1798 93.0196 28.1698 92.2796 26.3698L92.1596 26.3998C92.3596 29.8998 92.4596 33.0998 92.4596 35.9998V39.9598C92.4596 40.3198 92.2796 40.4998 91.9196 40.4998Z" fill="white"/>
<path d="M84.019 45.75C84.019 48.37 83.279 50.4 81.799 51.84C80.339 53.28 78.289 54 75.649 54C73.009 54 70.959 53.28 69.499 51.84C68.039 50.4 67.309 48.37 67.309 45.75L67.3087 10.54C67.3087 10.18 67.4887 10 67.8487 10H71.6587C72.0187 10 72.1987 10.18 72.1987 10.54L72.199 45.75C72.199 46.95 72.489 47.87 73.069 48.51C73.669 49.13 74.529 49.44 75.649 49.44C76.769 49.44 77.629 49.13 78.229 48.51C78.849 47.87 79.159 46.95 79.159 45.75L79.1587 10.54C79.1587 10.18 79.3287 10 79.6687 10H83.5087C83.8487 10 84.0187 10.18 84.0187 10.54L84.019 45.75Z" fill="white"/>
<path d="M63.6611 19.5898L63.6611 53.4598C63.6611 53.8198 63.4811 53.9998 63.1211 53.9998H59.3711C59.0111 53.9998 58.8311 53.8198 58.8311 53.4598L58.8311 19.5898C58.8311 19.2298 59.0111 19.0498 59.3711 19.0498H63.1211C63.4811 19.0498 63.6611 19.2298 63.6611 19.5898Z" fill="white"/>
<path d="M47.1655 40.4998H39.7855C39.4255 40.4998 39.2455 40.3198 39.2455 39.9598L39.2455 10.56C39.2455 10.2 39.4255 10.02 39.7855 10.02H47.1655C49.7655 10.02 51.8255 10.68 53.3455 12C54.8855 13.32 55.6555 15.45 55.6555 18.39L55.6555 32.1898C55.6555 37.7298 52.8255 40.4998 47.1655 40.4998ZM44.0755 14.52L44.0755 35.9698H47.2255C49.5455 35.9698 50.7055 34.7798 50.7055 32.3998L50.7055 18.15C50.7055 15.73 49.5455 14.52 47.2255 14.52H44.0755Z" fill="white"/>
<path d="M36.1083 45.48C36.1083 48.16 35.3383 50.25 33.7983 51.75C32.2583 53.25 30.1083 54 27.3483 54C24.6083 54 22.4683 53.25 20.9283 51.75C19.3883 50.25 18.6183 48.16 18.6183 45.48V27.6498C18.6183 24.9898 19.3883 22.9098 20.9283 21.4098C22.4683 19.9098 24.6083 19.1598 27.3483 19.1598C30.1083 19.1598 32.2583 19.9098 33.7983 21.4098C35.3383 22.8898 36.1083 24.9698 36.1083 27.6498V45.48ZM23.5383 45.39C23.5383 48.09 24.8083 49.44 27.3483 49.44C29.8883 49.44 31.1583 48.09 31.1583 45.39V27.7398C31.1583 25.0598 29.8883 23.7198 27.3483 23.7198C24.8083 23.7198 23.5383 25.0598 23.5383 27.7398V45.39Z" fill="white"/>
<path d="M16.7305 34.1398C16.7305 36.2198 15.9505 37.8598 14.3905 39.0598C12.8505 40.2598 10.7605 40.8598 8.12045 40.8598C6.60045 40.8598 5.23045 40.6298 4.01045 40.1698C2.79045 39.7098 1.53045 38.9598 0.230455 37.9198C-0.0295455 37.7198 -0.0695455 37.4798 0.110455 37.1998L2.15045 34.2898C2.35045 34.0098 2.59045 33.9798 2.87045 34.1998C4.81045 35.5598 6.67045 36.2498 8.45045 36.2698C9.45045 36.2698 10.2505 36.0998 10.8505 35.7598C11.4705 35.4198 11.7805 34.9298 11.7805 34.2898C11.7805 33.8098 11.5805 33.4098 11.1805 33.0898C10.8005 32.7498 10.3705 32.4998 9.89046 32.3398C9.41045 32.1798 8.75045 32.0198 7.91045 31.8598C2.89045 30.8198 0.380455 28.4898 0.380455 24.8698C0.380455 22.8698 1.13045 21.3398 2.63045 20.2798C4.15045 19.1998 6.11045 18.6598 8.51046 18.6598C11.0305 18.6598 13.4505 19.4298 15.7705 20.9698C16.0905 21.1698 16.1405 21.4098 15.9205 21.6898L14.0005 24.5698C13.8005 24.8498 13.5505 24.8998 13.2505 24.7198C11.6705 23.7198 10.0105 23.2198 8.27045 23.2198C6.29045 23.2198 5.30045 23.8198 5.30045 25.0198C5.30045 25.6398 5.57045 26.0898 6.11045 26.3698C6.67045 26.6498 7.67045 26.9598 9.11045 27.2998C10.3105 27.5998 11.3105 27.8998 12.1105 28.1998C12.9105 28.4998 13.6905 28.9098 14.4505 29.4298C15.2105 29.9298 15.7805 30.5798 16.1605 31.3798C16.5405 32.1598 16.7305 33.0798 16.7305 34.1398Z" fill="white"/>
<path d="M122.51 38.66C122.51 39.4 122.25 40.02 121.73 40.52C121.23 41.02 120.59 41.27 119.81 41.27C119.03 41.27 118.39 41.02 117.89 40.52C117.39 40.02 117.14 39.4 117.14 38.66C117.14 37.88 117.38 37.25 117.86 36.77C118.36 36.27 119.01 36.02 119.81 36.02C120.61 36.02 121.26 36.27 121.76 36.77C122.26 37.25 122.51 37.88 122.51 38.66ZM137.116 36.14C137.116 37.88 136.526 39.19 135.346 40.07C134.186 40.95 132.516 41.39 130.336 41.39C128.036 41.39 125.956 40.74 124.096 39.44C123.816 39.24 123.766 38.99 123.946 38.69L125.356 36.29C125.556 35.97 125.796 35.91 126.076 36.11C127.396 37.01 128.826 37.46 130.366 37.46C131.006 37.46 131.516 37.36 131.896 37.16C132.296 36.94 132.496 36.64 132.496 36.26C132.496 35.9 132.306 35.63 131.926 35.45C131.566 35.27 131.036 35.12 130.336 35C126.376 34.34 124.396 32.65 124.396 29.93C124.396 28.31 124.976 27.08 126.136 26.24C127.296 25.4 128.886 24.98 130.906 24.98C132.686 24.98 134.456 25.44 136.216 26.36C136.536 26.52 136.596 26.76 136.396 27.08L135.016 29.42C134.836 29.72 134.596 29.79 134.296 29.63C133.196 29.05 132.036 28.76 130.816 28.76C129.536 28.76 128.896 29.13 128.896 29.87C128.896 30.27 129.076 30.56 129.436 30.74C129.816 30.92 130.506 31.09 131.506 31.25C135.246 31.89 137.116 33.52 137.116 36.14ZM143.479 35.06C143.479 36.54 144.149 37.28 145.489 37.28C145.689 37.28 146.009 37.26 146.449 37.22C146.829 37.16 147.019 37.31 147.019 37.67V40.61C147.019 40.95 146.879 41.15 146.599 41.21C146.039 41.31 145.409 41.36 144.709 41.36C142.909 41.36 141.489 40.88 140.449 39.92C139.409 38.94 138.889 37.51 138.889 35.63V22.16C138.889 21.82 139.069 21.65 139.429 21.65H142.549C142.889 21.65 143.069 21.81 143.089 22.13L143.449 25.73H146.149C146.509 25.73 146.689 25.9 146.689 26.24V29.12C146.689 29.46 146.509 29.63 146.149 29.63H143.479V35.06ZM162.433 35.03C162.433 37.01 161.793 38.57 160.513 39.71C159.253 40.83 157.523 41.39 155.323 41.39C153.123 41.39 151.383 40.83 150.103 39.71C148.823 38.57 148.183 37.01 148.183 35.03V31.43C148.183 29.43 148.823 27.86 150.103 26.72C151.383 25.56 153.123 24.98 155.323 24.98C157.523 24.98 159.253 25.56 160.513 26.72C161.793 27.86 162.433 29.43 162.433 31.43V35.03ZM152.863 35.03C152.863 36.57 153.683 37.34 155.323 37.34C156.963 37.34 157.783 36.57 157.783 35.03V31.43C157.783 30.67 157.573 30.09 157.153 29.69C156.733 29.27 156.123 29.06 155.323 29.06C154.523 29.06 153.913 29.27 153.493 29.69C153.073 30.09 152.863 30.67 152.863 31.43V35.03ZM168.724 41H165.184C164.824 41 164.644 40.82 164.644 40.46V26.84C164.644 26.56 164.774 26.35 165.034 26.21C166.714 25.39 168.554 24.98 170.554 24.98C171.294 24.98 172.264 25.08 173.464 25.28C173.784 25.34 173.944 25.53 173.944 25.85V28.61C173.944 28.99 173.754 29.15 173.374 29.09C172.834 29.01 172.214 28.97 171.514 28.97C170.614 28.97 169.854 29.1 169.234 29.36V40.46C169.234 40.82 169.064 41 168.724 41ZM188.289 31.37V34.25C188.289 34.59 188.109 34.76 187.749 34.76H179.259V35.24C179.259 36 179.489 36.58 179.949 36.98C180.409 37.36 181.039 37.55 181.839 37.55C183.139 37.55 184.409 37.19 185.649 36.47C185.909 36.27 186.139 36.31 186.339 36.59L187.899 38.66C188.099 38.96 188.069 39.21 187.809 39.41C186.089 40.73 184.049 41.39 181.689 41.39C179.629 41.39 177.939 40.85 176.619 39.77C175.299 38.69 174.639 37.15 174.639 35.15V31.37C174.639 29.25 175.289 27.66 176.589 26.6C177.889 25.52 179.559 24.98 181.599 24.98C183.579 24.98 185.189 25.51 186.429 26.57C187.669 27.63 188.289 29.23 188.289 31.37ZM183.879 31.16C183.879 30.38 183.669 29.79 183.249 29.39C182.829 28.99 182.269 28.79 181.569 28.79C180.029 28.79 179.259 29.58 179.259 31.16V31.79H183.879V31.16Z" fill="white"/>
</svg>
