<svg width="26" height="26" viewBox="0 0 26 26" fill="none" xmlns="http://www.w3.org/2000/svg">
<path d="M9.31836 4.0625C6.43335 4.0625 4.0625 6.43017 4.0625 9.31836V16.6816C4.0625 19.5666 6.43017 21.9375 9.31836 21.9375H16.6816C19.5666 21.9375 21.9375 19.5698 21.9375 16.6816V9.31836C21.9375 6.43335 19.5698 4.0625 16.6816 4.0625H9.31836ZM9.31836 5.6875H16.6816C18.6907 5.6875 20.3125 7.30932 20.3125 9.31836V16.6816C20.3125 18.6907 18.6907 20.3125 16.6816 20.3125H9.31836C7.30932 20.3125 5.6875 18.6907 5.6875 16.6816V9.31836C5.6875 7.30932 7.30932 5.6875 9.31836 5.6875ZM17.7988 7.46484C17.3894 7.46484 17.0625 7.79174 17.0625 8.20117C17.0625 8.6106 17.3894 8.9375 17.7988 8.9375C18.2083 8.9375 18.5352 8.6106 18.5352 8.20117C18.5352 7.79174 18.2083 7.46484 17.7988 7.46484ZM13 8.125C10.3181 8.125 8.125 10.3181 8.125 13C8.125 15.6819 10.3181 17.875 13 17.875C15.6819 17.875 17.875 15.6819 17.875 13C17.875 10.3181 15.6819 8.125 13 8.125ZM13 9.75C14.8059 9.75 16.25 11.1941 16.25 13C16.25 14.8059 14.8059 16.25 13 16.25C11.1941 16.25 9.75 14.8059 9.75 13C9.75 11.1941 11.1941 9.75 13 9.75Z" fill="white"/>
</svg>
